# Blender 4.3.2
# www.blender.org
o EmptyOpenTile
v 0.000000 0.000000 -1.000000
v -0.866025 0.000000 -0.500000
v -0.866025 0.000000 0.500000
v 0.000000 0.000000 1.000000
v 0.866025 0.000000 0.500000
v 0.866025 0.000000 -0.500000
v 0.000000 0.000000 0.000000
v 0.000000 0.100000 -1.000000
v -0.866025 0.100000 -0.500000
v -0.866025 0.100000 0.500000
v 0.000000 0.100000 1.000000
v 0.866025 0.100000 0.500000
v 0.866025 0.100000 -0.500000
vn -0.0000 -1.0000 -0.0000
vn 1.0000 -0.0000 -0.0000
vn -0.5000 -0.0000 0.8660
vn -0.5000 -0.0000 -0.8660
vn 0.5000 -0.0000 -0.8660
vn 0.5000 -0.0000 0.8660
vn -1.0000 -0.0000 -0.0000
vt 0.000000 0.246057
vt 0.426183 0.492114
vt 0.000000 0.738170
vt 0.426183 0.984227
vt 0.852366 0.738170
vt 0.852366 0.246057
vt 0.426183 0.000000
vt 0.901577 0.738170
vt 0.950789 0.492114
vt 0.950789 0.738170
vt 0.852366 0.984227
vt 0.901577 0.738170
vt 0.901577 0.984227
vt 0.852366 0.246057
vt 0.901577 0.000000
vt 0.901577 0.246057
vt 0.950789 0.492114
vt 1.000000 0.000000
vt 1.000000 0.492114
vt 0.901577 0.492114
vt 0.950789 -0.000000
vt 0.852366 0.738170
vt 0.852366 0.000000
vt 0.950789 -0.000000
vt 0.901577 -0.000000
s 0
f 6/1/1 7/2/1 1/3/1
f 1/3/1 7/2/1 2/4/1
f 2/4/1 7/2/1 3/5/1
f 3/5/1 7/2/1 4/6/1
f 4/6/1 7/2/1 5/7/1
f 6/1/1 5/7/1 7/2/1
f 13/8/2 5/9/2 6/10/2
f 11/11/3 3/12/3 4/13/3
f 9/14/4 1/15/4 2/16/4
f 8/17/5 6/18/5 1/19/5
f 12/20/6 4/21/6 5/9/6
f 10/22/7 2/16/7 3/12/7
f 13/8/2 12/20/2 5/9/2
f 11/11/3 10/22/3 3/12/3
f 9/14/4 8/23/4 1/15/4
f 8/17/5 13/24/5 6/18/5
f 12/20/6 11/25/6 4/21/6
f 10/22/7 9/14/7 2/16/7
