# Blender 4.4.3
# www.blender.org
o EmptyTileTop
v 0.000000 1.000000 -0.000000
v -0.866025 0.500000 -0.000000
v -0.866025 -0.500000 0.000000
v 0.000000 -1.000000 0.000000
v 0.866025 -0.500000 0.000000
v 0.866025 0.500000 -0.000000
v 0.000000 0.000000 0.000000
vn -0.0000 -0.0000 1.0000
vt 1.000000 0.750000
vt 0.500000 1.000000
vt 0.500000 0.500000
vt 0.000000 0.750000
vt 0.000000 0.250000
vt 0.500000 0.000000
vt 1.000000 0.250000
s 1
f 6/1/1 1/2/1 7/3/1
f 1/2/1 2/4/1 7/3/1
f 2/4/1 3/5/1 7/3/1
f 3/5/1 4/6/1 7/3/1
f 4/6/1 5/7/1 7/3/1
f 6/1/1 7/3/1 5/7/1
